P2
# adapted for COL215
24 7
26
0 0 0 0 0 0 0 0 0 0 0 0 0 0 0 0 0 0 0 0 0 0 0 0 0 0 5 4 5 5 0 0 11 10 11 12 0 0 18 17 18 19 0 0 25 23 23 25 0 0 4 0 0 0 0 0 10 0 0 0 0 0 15 0 0 0 0 0 21 0 0 21 0 0 4 4 5 0 0 0 10 10 12 0 0 0 17 15 19 0 0 0 23 21 23 25 0 0 4 0 0 0 0 0 10 0 0 0 0 0 15 0 0 0 0 0 23 0 0 0 0 0 5 0 0 0 0 0 11 10 11 12 0 0 18 17 18 19 0 0 26 0 0 0 0 0 0 0 0 0 0 0 0 0 0 0 0 0 0 0 0 0 0 0 0 0 0 0 
