P2
# adapted for COL215
24 7
15
0 0 0 0 0 0 0 0 1 1 1 1 0 0 2 2 2 2 0 0 2 3 3 2 0 0 1 1 1 1 0 1 3 3 3 2 0 2 5 6 5 4 1 2 7 8 8 7 0 0 1 1 1 0 0 1 4 4 3 1 0 2 6 6 4 2 0 3 9 9 9 9 0 0 1 1 1 0 0 1 4 4 2 0 0 2 6 6 4 1 0 3 9 9 8 7 0 0 1 1 0 0 0 1 4 4 3 1 0 2 6 6 4 2 0 3 8 6 3 2 0 0 1 0 0 0 0 1 3 3 3 2 0 2 5 6 5 4 1 2 5 2 0 0 0 0 0 0 0 0 0 0 1 1 1 1 0 0 2 2 2 2 0 0 1 0 0 0 
